<svg id="Layer_1" data-name="Layer 1" xmlns="http://www.w3.org/2000/svg" viewBox="0 0 216.6 72.8"><defs><style>.cls-1{fill:#fff;}.cls-2{fill:#4f2682;}</style></defs><path class="cls-1" d="M70.4,51.1v-12h1.9l3.8,10.2h0l3.7-10.2h1.9v12H80.3V41.4h0c-.2.6-.5,1.4-.7,2.2l-2.9,7.5H75.4l-2.9-7.5a12.52,12.52,0,0,1-.7-2.3h0v9.8Z" transform="translate(0)"/><path class="cls-1" d="M83.6,46.8c0-3,1.9-4.5,4-4.5s4,1.5,4,4.5-1.9,4.5-4,4.5S83.6,49.8,83.6,46.8Zm6.5,0c0-1.8-.9-3.3-2.6-3.3s-2.6,1.3-2.6,3.3c0,1.8.8,3.3,2.6,3.3S90.1,48.8,90.1,46.8Z" transform="translate(0)"/><path class="cls-1" d="M93.1,51.1V42.5h1.4v1.6h0a3.59,3.59,0,0,1,3.3-1.8H98l-.1,1.3h-.4a3.19,3.19,0,0,0-3,1.9V51H93.1Z" transform="translate(0)"/><path class="cls-1" d="M99.2,51.1V42.5h1.4v1.6h0a3.59,3.59,0,0,1,3.3-1.8h.2l-.1,1.3h-.4a3.19,3.19,0,0,0-3,1.9V51H99.2Z" transform="translate(0)"/><path class="cls-1" d="M105.4,40.7V39.3h1.5v1.4Zm0,10.4V42.5h1.4v8.6Z" transform="translate(0)"/><path class="cls-1" d="M108.3,49.8l.8-.8a3.45,3.45,0,0,0,2.7,1.2c1.3,0,2.1-.5,2.1-1.3s-.7-1.2-2.2-1.5c-1.8-.4-3.1-.9-3.1-2.6,0-1.3,1.1-2.3,3-2.3a4.72,4.72,0,0,1,3.3,1.2l-.7.9a3.55,3.55,0,0,0-2.5-1c-1.2,0-1.7.6-1.7,1.2,0,.8.7,1.1,2,1.4,1.9.5,3.3.9,3.3,2.7,0,1.6-1.5,2.5-3.4,2.5A5.28,5.28,0,0,1,108.3,49.8Z" transform="translate(0)"/><path class="cls-1" d="M116.1,49.8l.8-.8a3.45,3.45,0,0,0,2.7,1.2c1.3,0,2.1-.5,2.1-1.3s-.7-1.2-2.2-1.5c-1.8-.4-3.1-.9-3.1-2.6,0-1.3,1.1-2.3,3-2.3a4.72,4.72,0,0,1,3.3,1.2l-.7.9a3.55,3.55,0,0,0-2.5-1c-1.2,0-1.7.6-1.7,1.2,0,.8.7,1.1,2,1.4,1.9.5,3.3.9,3.3,2.7,0,1.6-1.5,2.5-3.4,2.5A5.08,5.08,0,0,1,116.1,49.8Z" transform="translate(0)"/><path class="cls-1" d="M124,46.8c0-3.1,2.1-4.5,3.9-4.5,2,0,3.6,1.4,3.6,4.5v.3h-6a2.7,2.7,0,0,0,2.6,3,3,3,0,0,0,2.6-1.4l.8.7a4.09,4.09,0,0,1-3.5,1.8C125.8,51.3,124,49.8,124,46.8Zm6.1-.7c-.1-1.5-.8-2.6-2.3-2.6-1.2,0-2.2.8-2.4,2.6Z" transform="translate(0)"/><path class="cls-1" d="M133.6,49V43.7h-1.5V42.5h1.5v-3H135v3h2.2v1.2H135v5c0,.9.3,1.4,1.3,1.4a2.77,2.77,0,0,0,.9-.1v1.2c-.2,0-.8.1-1.2.1C134.2,51.2,133.6,50.5,133.6,49Z" transform="translate(0)"/><path class="cls-1" d="M139.4,49V43.7h-1.5V42.5h1.5v-3h1.4v3H143v1.2h-2.2v5c0,.9.3,1.4,1.3,1.4a2.77,2.77,0,0,0,.9-.1v1.2c-.2,0-.8.1-1.2.1C139.9,51.2,139.4,50.5,139.4,49Z" transform="translate(0)"/><path class="cls-1" d="M143.8,46.8c0-3.1,2.1-4.5,3.9-4.5,2,0,3.6,1.4,3.6,4.5v.3h-6a2.7,2.7,0,0,0,2.6,3,3,3,0,0,0,2.6-1.4l.8.7a4.09,4.09,0,0,1-3.5,1.8C145.7,51.3,143.8,49.8,143.8,46.8Zm6.2-.7c-.1-1.5-.8-2.6-2.3-2.6-1.2,0-2.2.8-2.4,2.6Z" transform="translate(0)"/><path class="cls-1" d="M156.7,51.1v-12h1.4v12Z" transform="translate(0)"/><path class="cls-1" d="M160.6,51.1V42.5H162v1.3a4.63,4.63,0,0,1,3.2-1.5,2.3,2.3,0,0,1,2.5,2.6v6.2h-1.4V45.2c0-1.1-.5-1.7-1.6-1.7a4,4,0,0,0-2.8,1.4v6.2Z" transform="translate(0)"/><path class="cls-1" d="M169.1,49.8l.8-.8a3.45,3.45,0,0,0,2.7,1.2c1.3,0,2.1-.5,2.1-1.3s-.7-1.2-2.2-1.5c-1.8-.4-3.1-.9-3.1-2.6,0-1.3,1.1-2.3,3-2.3a4.72,4.72,0,0,1,3.3,1.2l-.7.9a3.55,3.55,0,0,0-2.5-1c-1.2,0-1.7.6-1.7,1.2,0,.8.7,1.1,2,1.4,1.9.5,3.3.9,3.3,2.7,0,1.6-1.5,2.5-3.4,2.5A5.28,5.28,0,0,1,169.1,49.8Z" transform="translate(0)"/><path class="cls-1" d="M178.1,49V43.7h-1.5V42.5h1.5v-3h1.4v3h2.2v1.2h-2.2v5c0,.9.3,1.4,1.3,1.4a2.77,2.77,0,0,0,.9-.1v1.2c-.2,0-.8.1-1.2.1C178.7,51.2,178.1,50.5,178.1,49Z" transform="translate(0)"/><path class="cls-1" d="M183.2,40.7V39.3h1.5v1.4Zm.1,10.4V42.5h1.4v8.6Z" transform="translate(0)"/><path class="cls-1" d="M187.5,49V43.7H186V42.5h1.5v-3h1.4v3h2.2v1.2h-2.2v5c0,.9.3,1.4,1.3,1.4a2.77,2.77,0,0,0,.9-.1v1.2c-.2,0-.8.1-1.2.1C188,51.2,187.5,50.5,187.5,49Z" transform="translate(0)"/><path class="cls-1" d="M192.5,48.7V42.5h1.4v5.9c0,1.1.5,1.7,1.6,1.7a4,4,0,0,0,2.8-1.4V42.5h1.4v8.6h-1.4V49.8a4.56,4.56,0,0,1-3.2,1.4A2.25,2.25,0,0,1,192.5,48.7Z" transform="translate(0)"/><path class="cls-1" d="M202.3,49V43.7h-1.5V42.5h1.5v-3h1.4v3h2.2v1.2h-2.2v5c0,.9.3,1.4,1.3,1.4a2.77,2.77,0,0,0,.9-.1v1.2c-.2,0-.8.1-1.2.1C202.9,51.2,202.3,50.5,202.3,49Z" transform="translate(0)"/><path class="cls-1" d="M206.8,46.8c0-3.1,2.1-4.5,3.9-4.5,2,0,3.6,1.4,3.6,4.5v.3h-6a2.7,2.7,0,0,0,2.6,3,3,3,0,0,0,2.6-1.4l.8.7a4.09,4.09,0,0,1-3.5,1.8C208.7,51.3,206.8,49.8,206.8,46.8Zm6.1-.7c-.1-1.5-.8-2.6-2.3-2.6-1.2,0-2.2.8-2.4,2.6Z" transform="translate(0)"/><path class="cls-1" d="M70.9,69.6V62.2H69.4V61h1.5V59.8c0-1.4.8-2.3,2.6-2.3h.8v1.1h-.6c-.8,0-1.4.3-1.4,1.2V61h1.9v1.2H72.3v7.4Z" transform="translate(0)"/><path class="cls-1" d="M74.6,65.3c0-3,1.9-4.5,4-4.5s4,1.5,4,4.5-1.9,4.5-4,4.5S74.6,68.2,74.6,65.3Zm6.5,0c0-1.8-.9-3.3-2.6-3.3s-2.6,1.3-2.6,3.3c0,1.8.8,3.3,2.6,3.3S81.1,67.3,81.1,65.3Z" transform="translate(0)"/><path class="cls-1" d="M84.1,69.6V61h1.4v1.6h0a3.59,3.59,0,0,1,3.3-1.8H89l-.1,1.3h-.4a3.19,3.19,0,0,0-3,1.9v5.5H84.1Z" transform="translate(0)"/><path class="cls-1" d="M93.9,69.6v-12h7.4v1.3H95.4v3.7h4.4v1.3H95.4v4.4h6.3v1.3Z" transform="translate(0)"/><path class="cls-1" d="M102.9,69.6V61h1.4v1.3a4.63,4.63,0,0,1,3.2-1.5,2.3,2.3,0,0,1,2.5,2.6v6.2h-1.4V63.7c0-1.1-.5-1.7-1.6-1.7a4,4,0,0,0-2.8,1.4v6.2Z" transform="translate(0)"/><path class="cls-1" d="M112.7,67.5V62.2h-1.5V61h1.5V58h1.4v3h2.2v1.2h-2.2v5c0,.9.3,1.4,1.3,1.4a2.77,2.77,0,0,0,.9-.1v1.2c-.2,0-.8.1-1.2.1C113.3,69.7,112.7,69,112.7,67.5Z" transform="translate(0)"/><path class="cls-1" d="M117.8,69.6V61h1.4v1.6h0a3.59,3.59,0,0,1,3.3-1.8h.2l-.1,1.3h-.4a3.19,3.19,0,0,0-3,1.9v5.5h-1.4Z" transform="translate(0)"/><path class="cls-1" d="M122.9,65.3c0-3.1,2.1-4.5,3.9-4.5,2,0,3.6,1.4,3.6,4.5v.3h-6a2.7,2.7,0,0,0,2.6,3,3,3,0,0,0,2.6-1.4l.8.7a4.09,4.09,0,0,1-3.5,1.8C124.8,69.8,122.9,68.3,122.9,65.3Zm6.1-.7c-.1-1.5-.8-2.6-2.3-2.6-1.2,0-2.2.8-2.4,2.6Z" transform="translate(0)"/><path class="cls-1" d="M132,72.8V61h1.4v1.2a3.64,3.64,0,0,1,2.8-1.4c2,0,3.5,1.5,3.5,4.4s-1.5,4.4-3.6,4.4a4,4,0,0,1-2.7-1.2v4.3H132Zm6.3-7.5c0-2.2-1-3.3-2.4-3.3a3.28,3.28,0,0,0-2.5,1.3v3.9a3.44,3.44,0,0,0,2.5,1.3C137.3,68.6,138.3,67.6,138.3,65.3Z" transform="translate(0)"/><path class="cls-1" d="M141.3,69.6V61h1.4v1.6h0a3.59,3.59,0,0,1,3.3-1.8h.2l-.1,1.3h-.4a3.19,3.19,0,0,0-3,1.9v5.5h-1.4Z" transform="translate(0)"/><path class="cls-1" d="M146.5,65.3c0-3.1,2.1-4.5,3.9-4.5,2,0,3.6,1.4,3.6,4.5v.3h-6a2.7,2.7,0,0,0,2.6,3,3,3,0,0,0,2.6-1.4l.8.7a4.09,4.09,0,0,1-3.5,1.8C148.3,69.8,146.5,68.3,146.5,65.3Zm6.1-.7c-.1-1.5-.8-2.6-2.3-2.6-1.2,0-2.2.8-2.4,2.6Z" transform="translate(0)"/><path class="cls-1" d="M155.5,69.6V61h1.4v1.3a4.63,4.63,0,0,1,3.2-1.5,2.3,2.3,0,0,1,2.5,2.6v6.2h-1.4V63.7c0-1.1-.5-1.7-1.6-1.7a4,4,0,0,0-2.8,1.4v6.2Z" transform="translate(0)"/><path class="cls-1" d="M164.2,65.3c0-3.1,2.1-4.5,3.9-4.5,2,0,3.6,1.4,3.6,4.5v.3h-6a2.7,2.7,0,0,0,2.6,3,3,3,0,0,0,2.6-1.4l.8.7a4.09,4.09,0,0,1-3.5,1.8C166,69.8,164.2,68.3,164.2,65.3Zm6.1-.7c-.1-1.5-.8-2.6-2.3-2.6-1.2,0-2.2.8-2.4,2.6Z" transform="translate(0)"/><path class="cls-1" d="M173.1,67.2V61h1.4v5.9c0,1.1.5,1.7,1.6,1.7a4,4,0,0,0,2.8-1.4V61h1.4v8.6h-1.4V68.3a4.56,4.56,0,0,1-3.2,1.4A2.3,2.3,0,0,1,173.1,67.2Z" transform="translate(0)"/><path class="cls-1" d="M182.3,69.6V61h1.4v1.6h0a3.59,3.59,0,0,1,3.3-1.8h.2l-.1,1.3h-.4a3.19,3.19,0,0,0-3,1.9v5.5h-1.4Z" transform="translate(0)"/><path class="cls-1" d="M187.6,68.3l.8-.8a3.45,3.45,0,0,0,2.7,1.2c1.3,0,2.1-.5,2.1-1.3s-.7-1.2-2.2-1.5c-1.8-.4-3.1-.9-3.1-2.6,0-1.3,1.1-2.3,3-2.3a4.72,4.72,0,0,1,3.3,1.2l-.7.9a3.55,3.55,0,0,0-2.5-1c-1.2,0-1.7.6-1.7,1.2,0,.8.7,1.1,2,1.4,1.9.5,3.3.9,3.3,2.7,0,1.6-1.5,2.5-3.4,2.5A5.52,5.52,0,0,1,187.6,68.3Z" transform="translate(0)"/><path class="cls-1" d="M196.1,69.6v-12h1.4v4.7a4.63,4.63,0,0,1,3.2-1.5,2.3,2.3,0,0,1,2.5,2.6v6.2h-1.4V63.7c0-1.1-.5-1.7-1.6-1.7a4,4,0,0,0-2.8,1.4v6.2Z" transform="translate(0)"/><path class="cls-1" d="M205.3,59.2V57.8h1.5v1.4Zm0,10.4V61h1.4v8.6Z" transform="translate(0)"/><path class="cls-1" d="M208.9,72.8V61h1.4v1.2a3.64,3.64,0,0,1,2.8-1.4c2,0,3.5,1.5,3.5,4.4s-1.5,4.4-3.6,4.4a4,4,0,0,1-2.7-1.2v4.3h-1.4Zm6.3-7.5c0-2.2-1-3.3-2.4-3.3a3.28,3.28,0,0,0-2.5,1.3v3.9a3.44,3.44,0,0,0,2.5,1.3C214.2,68.6,215.2,67.6,215.2,65.3Z" transform="translate(0)"/><path class="cls-1" d="M131.9,11.8a1.82,1.82,0,0,1-1.4.6c-1.3,0-2.1-.5-4-.5-3.3,0-5.9,1.8-5.9,5.1,0,6.7,10.3,5.3,10.3,10.1,0,2.2-1.6,3.2-3.6,3.2-3.7,0-5.9-2.4-6.7-5.9h-.9l1.2,6.8a1.72,1.72,0,0,1,1.5-.6c1.1,0,2.4.8,4.8.8,3.8,0,6.8-2.1,6.8-5.8,0-7.3-10.5-5.4-10.5-10.1,0-1.5,1.1-2.6,3-2.6,3.1,0,4.8,2.2,5.5,4.7h.9Zm52.3,18.1v.9h10.1v-.9h-3V20.1c0-3.5,1.8-6.9,5.2-6.9,1.9,0,3.1,1.1,3.1,3.9V29.9h-3v.9h9.8v-.9h-3V17.3c0-3.8-1.9-5.4-5.6-5.4a6.64,6.64,0,0,0-6.5,4.1h-.1V11.8a4.05,4.05,0,0,1-2.9.9h-4v.9h3V29.9Zm-36.8-2.3a3.11,3.11,0,0,1-2.7,2.2c-1.4,0-2-.9-2-3.1V13.6h4.6v-.9h-4.6V6.4h-.8c-.5,4-2.5,6.1-6.2,6.4v.7h3.1V26.4c0,2.4.5,4.7,4.4,4.7a5,5,0,0,0,4.8-2.6l.3-.6Zm35.8-13.1c0-1.5-1.1-2.6-3.2-2.6-3.1,0-4.6,2.8-5.4,4.9h0V11.7a3.77,3.77,0,0,1-2.9,1h-4.2v.9h3.2V29.9h-3.2v.9h10.2v-.9h-3.1v-8c0-4.3,2.1-8.9,4.8-8.9.2,0,.3,0,.4.1a2,2,0,0,0,1.2,3.6,2.22,2.22,0,0,0,2.2-2.2M116.3,25.7c-1.1,2.5-2.8,4.5-6.1,4.5-4.9,0-5.6-3.7-5.6-9.4v-.3h12.5c0-5.1-2.8-8.5-8-8.5-5.7,0-8.8,4.4-8.8,9.7,0,5.5,2.9,9.7,8.8,9.7,3.6,0,6.6-1.4,8.1-5.4Zm-11.6-7.3c.2-2.8,1.2-5.5,4.2-5.5,3.2,0,3.8,2.5,3.9,5.1v1.3h-8.2c0-.3.1-.6.1-.9m60.4,7.3c-1.1,2.5-2.8,4.5-6.1,4.5-4.9,0-5.6-3.7-5.6-9.4v-.3H166c0-5.1-2.8-8.5-8-8.5-5.7,0-8.8,4.4-8.8,9.7,0,5.5,2.9,9.7,8.8,9.7,3.6,0,6.6-1.4,8.1-5.4Zm-11.6-7.3c.2-2.8,1.2-5.5,4.2-5.5,3.2,0,3.8,2.5,3.9,5.1v1.3h-8.2a2.77,2.77,0,0,0,.1-.9M84,11.7c-1.7,4.8-6.8,19.6-6.8,19.6h-.8L68,8.3,66.6,4.6H64V3.7H74.8v.9H71.4l1,3.1L78.3,24h.1L83.3,9.8,81.4,4.6H78.1V3.7H89.9v.9H86.1l1,3,6,16.4h.1L98.5,7.7l.9-3.1H96V3.7h7.7v.9H101L99.7,8,92.1,31.3h-.8Z" transform="translate(0)"/><path class="cls-1" d="M53,27.3V3.6C46.8,1.4,37.2,0,26.3,0,15.6,0,6.1,1.4,0,3.6V27.3A41.7,41.7,0,0,0,3.2,45.1c4,9.3,11.7,16.3,22.7,20.7l.6.2.6-.2c11.1-4.4,18.7-11.4,22.7-20.7A44.07,44.07,0,0,0,53,27.3Z" transform="translate(0)"/><path class="cls-2" d="M26.5,39.5,42.6,52.6a41.49,41.49,0,0,1-16.1,11,41.49,41.49,0,0,1-16.1-11ZM50.8,19.7V5.1c-6.1-1.9-15.1-3-24.5-3s-18,1.1-24.2,3V19.7h0L26.4,39.6,50.8,19.7ZM27.2,31.9H25.7v-.1s-.4-.7-2-.7H18.9V23.3h.4v7.4h4.5c1.5,0,2.1.6,2.2.8h1.2a2.65,2.65,0,0,1,2.2-.8h4.5V23.3h.4v7.8H29.5c-1.6,0-1.9.7-1.9.7v.1Zm-.9-1.3V31c-.7-1.3-3.7-1.1-6.3-.8V23c3.3-.2,6-.6,6.3.8v6.5c-.8-1-3.3-.9-5.9-.6v.2C22.9,29.5,25.7,29.4,26.3,30.6ZM33,22.9v7.2c-2.6-.3-5.7-.5-6.3.8v-.4c.6-1.1,3.3-1,5.9-.8v-.2c-2.6-.3-5.1-.4-5.9.6V23.6C27,22.3,29.7,22.8,33,22.9Zm14.4-3.2H5.5L2.8,16.9l5.3,1.8c-.4-1.3-1.7-1.8-2.4-2.9a3.12,3.12,0,0,1-.6-2,3,3,0,0,0,.8.9,3.35,3.35,0,0,0,1.6.6A5.28,5.28,0,0,1,10,16.5L7.3,11.6l4.7,3c-.2-1.4-1.2-2.1-1.6-3.4a3.08,3.08,0,0,1-.1-2.1,1.79,1.79,0,0,0,.6,1,3.88,3.88,0,0,0,1.4,1,4.87,4.87,0,0,1,2.1,1.8L13,7.3l3.8,4.1c.2-1.4-.6-2.3-.7-3.7a3,3,0,0,1,.5-2.1,2.61,2.61,0,0,0,.3,1.1A4.23,4.23,0,0,0,18,8a4.58,4.58,0,0,1,1.6,2.4V4.6l2.6,4.9c.5-1.2,0-2.4.2-3.7a3.2,3.2,0,0,1,1-1.9,2.4,2.4,0,0,0,0,1.2,4.34,4.34,0,0,0,.7,1.6,4.56,4.56,0,0,1,1,2.8h0l1.4-5.6,1.3,5.4c.8-1.1.6-2.4,1.1-3.6a2.6,2.6,0,0,1,1.4-1.5A3.54,3.54,0,0,0,30,5.3,6.09,6.09,0,0,0,30.3,7a5.19,5.19,0,0,1,.3,2.9l2.7-5.1v5.6c1.1-.8,1.1-2.2,2-3.2a2.52,2.52,0,0,1,1.8-1.1,4.37,4.37,0,0,0-.6,1,4.42,4.42,0,0,0-.1,1.7,4.73,4.73,0,0,1-.5,2.9h0L40,7.3l-1.4,5.4c1.2-.6,1.6-1.7,2.7-2.5a2.61,2.61,0,0,1,2-.7,2.42,2.42,0,0,0-.8.9A5,5,0,0,0,42,12a4.26,4.26,0,0,1-1.2,2.7h0l4.9-3.1L43,16.4c1.3-.2,2-1.2,3.2-1.8a3.17,3.17,0,0,1,2.1-.2,2.66,2.66,0,0,0-1,.6,4.89,4.89,0,0,0-.9,1.5,4.42,4.42,0,0,1-1.8,2.3h0L50.1,17ZM20.8,27.6H21c.4,0,.5,0,.5-.3V26c0-.3-.1-.4-.3-.4h-.3v-.1h1.8v.1h-.3c-.3,0-.3,0-.3.4v1.3c0,.3,0,.3.5.3h.1v.1H20.9v-.1Zm3.1-1.4a1.15,1.15,0,0,1-.6-.9.91.91,0,0,1,1-.9.81.81,0,0,1,.9.7c0,.4-.1.6-.6.8.5.3.7.5.7.9s-.4.9-1.1.9a.82.82,0,0,1-.9-.8C23.3,26.5,23.7,26.3,23.9,26.2Zm.9.9c0-.3-.1-.5-.7-.8a.67.67,0,0,0-.4.7c0,.5.3.7.6.7A.74.74,0,0,0,24.8,27.1Zm-.3-1.2a1,1,0,0,0,.4-.7c0-.4-.2-.6-.5-.6a.54.54,0,0,0-.5.5C23.8,25.4,24,25.6,24.5,25.9Zm3-.4h2L28,28.8l-.2-.1L29,26H27.6l-.1.3h-.1Zm3.2.7a1.15,1.15,0,0,1-.6-.9.91.91,0,0,1,1-.9.81.81,0,0,1,.9.7c0,.4-.1.6-.6.8.5.3.7.5.7.9s-.4.9-1.1.9a.82.82,0,0,1-.9-.8A.75.75,0,0,1,30.7,26.2Zm.8.9c0-.3-.1-.5-.7-.8a.67.67,0,0,0-.4.7c0,.5.3.7.6.7A.6.6,0,0,0,31.5,27.1Zm-.3-1.2a1,1,0,0,0,.4-.7c0-.4-.2-.6-.5-.6a.54.54,0,0,0-.5.5C30.6,25.4,30.8,25.6,31.2,25.9Zm3.1,13.5a6.2,6.2,0,1,1,6.2,6.3A6.32,6.32,0,0,1,34.3,39.4Zm9.1-4.3a.35.35,0,0,1,.1.2.3.3,0,0,1-.6,0c0-.1.1-.3.2-.3l-.3-.5-.5.2c.1,0,.1.1.1.2a.3.3,0,0,1-.6,0c0-.1.1-.2.2-.3a3.49,3.49,0,0,0-.9-.6,3.07,3.07,0,0,1,.4,1.5,5.49,5.49,0,0,1,1.7.5,2.34,2.34,0,0,1,1.2-1A2.79,2.79,0,0,1,43.4,35.1Zm-1.7,1.3h-.2a.1.1,0,0,0-.1-.1c-.2,0-.2.1-.3.2v.2l.1.1h.1c.1,0,.1-.1.1-.2s.2-.2.3-.2Zm-1.7,0v.2h0V37c0,.1.1.1.3.1v.1H40a.37.37,0,0,1-.4-.4v-.1h0a.55.55,0,0,0-.4.5c0,.3.1.5.4.5a1.09,1.09,0,0,0,.5-.1c.3-.1.7-.2.9.1h-.7c-.2,0-.3.4-.1.4H41a1.14,1.14,0,0,1-.8.7,2.43,2.43,0,0,0-1.2,0,4,4,0,0,1-.7-1.5v-.4c.1-.2.4-.2.5-.4s0-.2.1-.3.1-.2,0-.3c-.1.1-.1.1-.2.1h-.2l-.3.3c-.1.1-.1,0-.1-.1s.1-.3.1-.4-.1-.3-.3-.4-.1-.1-.2-.1h-.1l.1.1c0,.1-.1.2-.1.3a.76.76,0,0,0,.2.5.1.1,0,0,1-.1.1.6.6,0,0,0-.4-.1c-.1,0-.2.1-.3.1s-.2,0-.2.1a.22.22,0,0,1,.2.2c0,.1,0,.1.1.2-.1.2.1.2.3.2a.22.22,0,0,1,.2.2.37.37,0,0,1-.1.3.9.9,0,0,0-.1.5.1.1,0,0,1,.1-.1c.1,0,.1.1.1.3a.45.45,0,0,0,0,.5.1.1,0,0,1,.1-.1c.1,0,.1.1.1.3a.45.45,0,0,0,0,.5.1.1,0,0,1,.1-.1c.1,0,.1.1.2.2.1.3.3.4.8.4-.2.3-1.5.1-2.1,0-.1,0-.2,0-.2-.1s.1-.4,0-.6l-.2-.2s-.2-.2-.2-.1,0,.2-.1.2-.1.1-.1.2.1.3.1.4,0,.1-.1.1a.85.85,0,0,0-.5-.3c-.1,0-.2.1-.3.1s-.3,0-.2.1a.22.22,0,0,1,.2.2c0,.1,0,.2.1.2a1.49,1.49,0,0,0,.6.1c.1,0,.1.1,0,.1s-.3.1-.4.3,0,.2,0,.4-.1.2,0,.2.1-.1.3-.1H36c.1-.1.2-.2.2-.3s.1-.1.2-.1.1,0,.2.1.1.3.4.4v-.1c0-.1,0-.1.1-.1s.1,0,.2.2.2.2.3.2v-.1c0-.1,0-.1.1-.1a.31.31,0,0,1,.2.1c.1.2.2.2.3.3,0-.1,0-.2.1-.2a4.08,4.08,0,0,1,.7.2,2.21,2.21,0,0,0,1,1.7c0-.1,0-.2.1-.2s.4.6.9.8c0-.1,0-.2.1-.2s.1,0,.2.1a8.14,8.14,0,0,1,1.2.8,4.72,4.72,0,0,0,1.8-1.2,7.17,7.17,0,0,1-1.5-1.1,2.79,2.79,0,0,1-.8-1.8.6.6,0,0,1,.1-.4.45.45,0,0,0,.5,0,.5.5,0,0,1-.1-.7.45.45,0,0,0,.5,0,.57.57,0,0,1-.2-.7.45.45,0,0,0,.5,0,1,1,0,0,1-.3-.8.6.6,0,0,0,.4.1,1.7,1.7,0,0,1-.1-.7,1.17,1.17,0,0,0-.2-.7,3.78,3.78,0,0,0-1.7-.6h-.2a1,1,0,0,0-.3.1.76.76,0,0,1-.5.2C40.5,36.3,40.1,36.4,40,36.4Zm.8,4.3h0a6.6,6.6,0,0,1-.4,1.1l.2-.2.2.2.2-.2.2.2C41.1,41.6,40.9,41,40.8,40.7ZM45,42.4a.31.31,0,0,0,.1-.2,2.45,2.45,0,0,1-.4-1.2c0-.5.3-.6.5-.6s.3.2.3.4c.2-.1.2-.3.2-.5a.54.54,0,0,0-.3-.4.93.93,0,0,0,0-1.3c.1.5-.3.9-.7,1.2a1.39,1.39,0,0,0-.4,1.5,2.82,2.82,0,0,1-.4-1.5c0-.5.3-1.1.7-1.1.1,0,.3.1.3.2.2-.3.1-.7-.3-.7a1.4,1.4,0,0,0-.6-1.7.88.88,0,0,1,.1.7c-.1.7-.7,1.3-.8,2.4a4.16,4.16,0,0,0,1.3,3C44.9,42.6,44.9,42.5,45,42.4Zm-2.8-.1h0a6.6,6.6,0,0,1-.4,1.1l.2-.2.2.2.2-.2.2.2C42.5,43.2,42.3,42.6,42.2,42.3Zm-1-4.8a.35.35,0,0,1,.1-.2v-.1a1,1,0,0,0-.3-.1.37.37,0,0,0-.3.1v.1A.65.65,0,0,1,41.2,37.5ZM12.4,45.7a6.3,6.3,0,1,0-6.2-6.3A6.19,6.19,0,0,0,12.4,45.7Zm4-8.9a1.07,1.07,0,0,1-.2.6h-.4c-.1,0-.1,0-.2.1-.2.3-.3.5-.5.8a5.28,5.28,0,0,1-.1,1.2.75.75,0,0,1-.1.5c-.1.2-.3.3-.4.4h0c.1,0,.3-.2.4-.2s.4-.3.8,0a4.23,4.23,0,0,0,.7.5c.1.1.2.1.3.2a.76.76,0,0,1,.2.4,1,1,0,0,1,.2.5.85.85,0,0,1-.7,0,.49.49,0,0,1-.1-.3c-.1-.1-.1-.2-.2-.3l-.3-.3c-.3-.2-.4-.2-.6-.1s-.5.4-.9.6a1.64,1.64,0,0,1-1.2-.2c.1.2.5.4.8.6a3.38,3.38,0,0,1-.4,1,.1.1,0,0,0-.1-.1c-.2,0-.2.4-.4.7a.1.1,0,0,0-.1-.1c-.2,0-.2.4-.4.6a.2.2,0,0,0-.4,0,3.74,3.74,0,0,0-.6.7,4.51,4.51,0,0,1-2.6-1.2,19.84,19.84,0,0,1,1.9-2c.2-.5.7-1.6.9-2.1a.1.1,0,0,0-.1-.1.49.49,0,0,1-.3.1.45.45,0,0,0,0-.5.19.19,0,0,1-.3,0,.45.45,0,0,0,0-.5h0a.19.19,0,0,1-.3,0c0-.2.1-.4,0-.6v-.1c-.2.1-.7.2-.8.1s.4-.5.8-.9a7.65,7.65,0,0,1-1.6.5,5.75,5.75,0,0,1-1.9.1c-.1,0-.1-.2,0-.2a4.1,4.1,0,0,0,1.1-.1c.1,0,.2-.1,0-.1a3,3,0,0,1-1-.2c-.1,0,0-.1,0-.1.3,0,.7.1.9.1s.2,0,.1-.1a2.19,2.19,0,0,0-.5-.3v-.1c.2,0,.8.4,1.3.5h.3a.1.1,0,0,0,.1-.1c0-.1-.5-.3-.7-.5s0-.1.1-.1a4.18,4.18,0,0,0,1,.4c.2,0,.3,0,.3-.1s-.8-.5-1-.6a.1.1,0,0,1,.1-.1c.4,0,1.1.6,1.5.5a.1.1,0,0,0,.1-.1c0-.1-.6-.5-.8-.6s0-.1.1-.1.6.2.8.3a.37.37,0,0,0,.3.1.36.36,0,0,0,.2-.5.82.82,0,0,0-.5-.5c-.2-.1-.1-.2.1-.1.4.1.6.2.7.6v.2c0,.2.1.1.2,0a1.23,1.23,0,0,0,.2-.7,1.1,1.1,0,0,0-.5-.5l.1-.1c.2,0,.7.2.7.6v.5s0,.1.1,0a1.53,1.53,0,0,0,.4-1c-.1-.4-.5-.5-.5-.6h.1a.82.82,0,0,1,.7.7c.1.4-.1,1.2-1.3,1.9.5-.1.7-.1.7,0,.6-.2,1-.3,1.1-.2.2.3-.2.4-.2.5s.4-.1.3.2-.3.2-.5.3-.5.3-.7.5a4.41,4.41,0,0,1,1.2,1.1,6.66,6.66,0,0,1,.3.7h0a9.44,9.44,0,0,1,.3-.9c.1-.2,0-.2.1-.4s.2-.2.4-.5a3.11,3.11,0,0,1,.4-.6c.1-.2.2-.2.5-.2Zm-4.6,0,.1-.1a.37.37,0,0,1,.3-.1v.3a.14.14,0,0,1-.2,0c-.1,0-.2,0-.2-.1C11.8,36.9,11.7,36.8,11.8,36.8ZM32.8,53a.19.19,0,0,0,.1-.3,3.54,3.54,0,0,1-.6.1.75.75,0,0,1-.7-.5,1,1,0,0,1,.4-1c.1-.1.3-.2.4-.4s.2-.6.2-.8.2-.3.4-.6.2-.3.1-.4c-.3.2-1,.8-1.4.6-.2-.1-.2-.1-.4,0s-.3.1-.6.1-.6-.3-.6-.5c-.2,0-.5.4-.6.6l-.6.6c-.2.1-.5.4-.7.3s-.2-.5-.2-.7.1-.6.1-.8a1.42,1.42,0,0,1,.2-.6c.1-.2.2-.5.3-.7s.3-.6.3-.7a.1.1,0,0,0-.1-.1.76.76,0,0,0-.4.2c-.1.1-.2.1-.4.1a.55.55,0,0,1-.5-.3,9.92,9.92,0,0,1-.3-1.5c-.2.1-.4.1-.5-.1s-.2-.5-.4-.8a2.07,2.07,0,0,0-.2-.6c-.1.2-.1.5-.2.7a4.33,4.33,0,0,0-.1.5c0,.2-.2.5-.4.5a.22.22,0,0,1-.2-.2c-.1,0-.1.1-.1.2a.9.9,0,0,0-.1.5c-.1.4-.1.8-.6.9a1.42,1.42,0,0,1-.6-.2c-.4-.2-.2.3-.1.5a1.49,1.49,0,0,1,.3.7c.1.5.1.7.2,1.1a3.71,3.71,0,0,1,.2.9c0,.3-.3.6-.7.2a3.17,3.17,0,0,0-.6-.5,1.41,1.41,0,0,1-.7-.6c-.1,0-.2.1-.3.2a1.37,1.37,0,0,1-1.3.3,2.12,2.12,0,0,1-.7-.3,2.09,2.09,0,0,1-.6-.4.22.22,0,0,0-.2-.2c-.1,0-.1.2-.1.3a1.85,1.85,0,0,0,.2.7c.1.2.3.3.5.5s.1.4-.2.3c0,.2.2.2.3.3a1.38,1.38,0,0,1,.3.4c.1.2.3.3.3.6s0,.3-.2.4a.64.64,0,0,1-.6,0c-.1.3.3.6.5.7s.3.1.4.2.3.2.3.3c.2.1.4,0,.7,0a1.14,1.14,0,0,1,.6.3c.2.1.2.3.2.5,0,.7-1.2.9-1.2.9a3.53,3.53,0,0,0,1.7.4c.1,0,.3-.1.4-.1s.2.2.1.4a.75.75,0,0,0,.5.1.6.6,0,0,0,.4-.1c.2-.1.2-.2.3-.3s.3,0,.4-.1.3-.3.6-.3l-.1,4.3h.8V58.4a16.2,16.2,0,0,0-.1-2.2v-.7c.2.1.3.4.5.5s.8.5,1.1.2c0-.1-.2-.4,0-.3a.35.35,0,0,1,.2.1.6.6,0,0,0,.4.1h1a.76.76,0,0,0,.4-.2c.2-.1.5,0,.7-.2a1.07,1.07,0,0,1-.6-.2,1,1,0,0,1-.5-.6c-.1-.2-.2-.5.2-.6.2,0,.1,0,.3-.1a2.18,2.18,0,0,1,.5-.4c.2-.1.8,0,.9-.3l-.1-.1a.1.1,0,0,1,.1-.1.6.6,0,0,1,.4-.1A1.6,1.6,0,0,0,32.8,53Z" transform="translate(0)"/></svg>